<?xml version="1.0" encoding="utf-8"?>
<!-- Generator: Adobe Illustrator 24.0.1, SVG Export Plug-In . SVG Version: 6.00 Build 0)  -->
<svg version="1.1" id="Layer_1" xmlns="http://www.w3.org/2000/svg" xmlns:xlink="http://www.w3.org/1999/xlink" x="0px" y="0px"
	 viewBox="0 0 841.89 595.28" style="enable-background:new 0 0 841.89 595.28;" xml:space="preserve">
<style type="text/css">
	.st0{opacity:0.6;fill:#39B54A;}
	.st1{opacity:0.5;fill:#70C599;}
	.st2{fill:url(#SVGID_1_);}
	.st3{fill:#1D4822;stroke:#1D4822;stroke-width:2.78;stroke-miterlimit:10;}
	.st4{fill:#1D4822;}
	.st5{fill:#507C83;stroke:#507C83;stroke-width:6.4868;stroke-miterlimit:10;}
</style>
<g>
	
		<rect x="259.76" y="235.66" transform="matrix(4.522611e-11 -1 1 4.522611e-11 14.7291 509.2089)" class="st0" width="4.42" height="23.16"/>
	<g>
		<g>
			<ellipse class="st1" cx="447.77" cy="255.58" rx="202.24" ry="203.55"/>
			<linearGradient id="SVGID_1_" gradientUnits="userSpaceOnUse" x1="240.6791" y1="255.584" x2="654.8629" y2="255.584">
				<stop  offset="0" style="stop-color:#39B54A"/>
				<stop  offset="0.1287" style="stop-color:#39AE48"/>
				<stop  offset="0.2606" style="stop-color:#38A245"/>
				<stop  offset="0.394" style="stop-color:#35903F"/>
				<stop  offset="0.5285" style="stop-color:#2F7836"/>
				<stop  offset="0.6625" style="stop-color:#255B2A"/>
				<stop  offset="0.7608" style="stop-color:#1C441F"/>
			</linearGradient>
			<path class="st2" d="M447.77,463.96c-114.19,0-207.09-93.48-207.09-208.38c0-114.9,92.9-208.38,207.09-208.38
				c114.19,0,207.09,93.48,207.09,208.38C654.86,370.48,561.96,463.96,447.77,463.96z M447.77,56.87
				c-108.84,0-197.38,89.14-197.38,198.72c0,109.57,88.55,198.72,197.38,198.72s197.38-89.14,197.38-198.72
				C645.15,146.01,556.61,56.87,447.77,56.87z"/>
		</g>
		<rect x="440.1" y="56.87" class="st0" width="4.86" height="25.3"/>
		<polygon class="st0" points="364.97,102.91 360.76,105.32 348.05,83.42 352.26,81 		"/>
		<polygon class="st0" points="304.04,160.32 301.61,164.5 279.6,151.86 282.03,147.67 		"/>
		<polygon class="st0" points="292.49,330.74 294.91,334.93 272.9,347.58 270.48,343.39 		"/>
		<polygon class="st0" points="354.54,402.19 358.74,404.61 346.04,426.52 341.83,424.1 		"/>
		
			<rect x="447.77" y="429" transform="matrix(-1 -8.915725e-11 8.915725e-11 -1 900.3976 883.3033)" class="st0" width="4.86" height="25.3"/>
		<polygon class="st0" points="541.39,400.61 545.59,398.2 558.3,420.1 554.09,422.52 		"/>
		<polygon class="st0" points="603.91,328.93 606.34,324.74 628.35,337.39 625.92,341.57 		"/>
		
			<rect x="630.03" y="223.64" transform="matrix(-1.355078e-10 1 -1 -1.355078e-10 868.7916 -396.0959)" class="st0" width="4.83" height="25.42"/>
		<polygon class="st0" points="588.53,156.95 586.1,152.76 608.11,140.11 610.54,144.3 		"/>
		<polygon class="st0" points="525.62,100.89 521.42,98.47 534.13,76.57 538.33,78.98 		"/>
		<rect x="440.1" y="56.87" class="st0" width="4.86" height="25.3"/>
	</g>
	<g>
		<path class="st3" d="M311.88,192.15l24.16,34.15v-34.46c0-2.24,0.51-3.92,1.55-5.04c1.03-1.12,2.42-1.68,4.17-1.68
			c1.81,0,3.23,0.56,4.27,1.68c1.04,1.12,1.57,2.8,1.57,5.04v45.57c0,5.09-2.26,7.63-6.77,7.63c-1.13,0-2.14-0.15-3.05-0.45
			c-0.9-0.3-1.75-0.78-2.54-1.44c-0.79-0.66-1.52-1.43-2.2-2.31c-0.68-0.88-1.35-1.78-2.03-2.71l-23.57-33.75v33.95
			c0,2.21-0.55,3.89-1.65,5.02c-1.1,1.13-2.51,1.7-4.23,1.7c-1.78,0-3.2-0.57-4.27-1.72c-1.07-1.15-1.61-2.81-1.61-5v-44.7
			c0-1.9,0.23-3.39,0.68-4.47c0.54-1.19,1.42-2.15,2.67-2.9c1.24-0.75,2.58-1.13,4.02-1.13c1.13,0,2.1,0.17,2.9,0.51
			c0.8,0.34,1.51,0.8,2.12,1.38c0.61,0.58,1.23,1.33,1.86,2.25C310.55,190.18,311.2,191.15,311.88,192.15z"/>
		<path class="st3" d="M392.8,225.74h-22.6c0.03,2.45,0.56,4.61,1.59,6.48c1.03,1.87,2.4,3.28,4.11,4.23
			c1.71,0.95,3.59,1.42,5.65,1.42c1.38,0,2.65-0.15,3.79-0.45c1.14-0.3,2.25-0.78,3.32-1.42c1.07-0.65,2.06-1.34,2.96-2.07
			c0.9-0.74,2.07-1.74,3.51-3c0.59-0.47,1.44-0.71,2.54-0.71c1.19,0,2.14,0.3,2.88,0.91c0.73,0.61,1.1,1.46,1.1,2.57
			c0,0.98-0.41,2.11-1.23,3.42c-0.82,1.3-2.05,2.56-3.7,3.75c-1.65,1.2-3.72,2.19-6.22,2.98s-5.37,1.19-8.61,1.19
			c-7.42,0-13.19-1.98-17.31-5.93c-4.12-3.95-6.18-9.31-6.18-16.09c0-3.19,0.51-6.15,1.52-8.87c1.02-2.73,2.5-5.06,4.44-7.02
			c1.95-1.95,4.34-3.44,7.19-4.49c2.85-1.04,6.01-1.56,9.48-1.56c4.51,0,8.39,0.89,11.62,2.67c3.23,1.78,5.65,4.08,7.26,6.9
			c1.61,2.82,2.41,5.69,2.41,8.62c0,2.71-0.83,4.47-2.5,5.28C398.16,225.34,395.81,225.74,392.8,225.74z M370.2,219.61h20.95
			c-0.28-3.69-1.35-6.45-3.2-8.28c-1.85-1.83-4.28-2.75-7.3-2.75c-2.88,0-5.24,0.93-7.09,2.79
			C371.71,213.23,370.59,215.98,370.2,219.61z"/>
		<path class="st3" d="M435.96,240.56l-8.38-11.5l-8.59,11.5c-1.24,1.61-2.29,2.75-3.15,3.44c-0.86,0.68-1.95,1.03-3.28,1.03
			c-1.47,0-2.72-0.43-3.75-1.28c-1.03-0.86-1.54-1.84-1.54-2.94c0-1.13,0.79-2.75,2.37-4.86l10.45-13.99l-9.27-11.66
			c-1.61-1.92-2.41-3.6-2.41-5.02c0-1.11,0.48-2.07,1.44-2.89c0.96-0.82,2.21-1.23,3.77-1.23c1.35,0,2.48,0.36,3.36,1.07
			c0.89,0.71,1.93,1.83,3.11,3.36l7.49,9.56l7.28-9.56c1.21-1.58,2.26-2.71,3.15-3.4c0.89-0.68,2-1.03,3.32-1.03
			c1.52,0,2.79,0.4,3.79,1.21c1,0.8,1.5,1.77,1.5,2.9c0,0.82-0.2,1.6-0.61,2.35c-0.41,0.75-1.04,1.64-1.88,2.67l-9.27,11.66
			l10.45,13.99c1.64,2.19,2.45,3.83,2.45,4.94c0,1.13-0.51,2.11-1.52,2.92c-1.02,0.82-2.27,1.23-3.77,1.23
			c-1.33,0-2.45-0.36-3.36-1.07C438.2,243.25,437.15,242.12,435.96,240.56z"/>
		<path class="st4" d="M556.8,193.3h-36.39v132.53c0,7.63-1.54,13.3-4.6,16.99c-3.07,3.69-7.04,5.54-11.91,5.54
			c-4.94,0-8.97-1.87-12.07-5.6c-3.11-3.73-4.66-9.37-4.66-16.92V193.3h-36.39c-5.69,0-9.92-1.39-12.69-4.17
			c-2.77-2.78-4.16-6.45-4.16-11.01c0-4.73,1.44-8.46,4.32-11.2c2.88-2.74,7.06-4.11,12.52-4.11H556.8c5.77,0,10.05,1.41,12.86,4.23
			c2.81,2.82,4.21,6.51,4.21,11.08c0,4.56-1.42,8.24-4.27,11.01C566.76,191.91,562.49,193.3,556.8,193.3z"/>
		<path class="st5" d="M309.34,335.01v-18.38l-15.15-21.94c-1.33-1.98-2.26-3.52-2.81-4.62s-0.83-2.07-0.83-2.89
			c0-1.34,0.56-2.5,1.67-3.48c1.11-0.97,2.49-1.46,4.13-1.46c1.72,0,3.03,0.45,3.91,1.36c0.89,0.91,2.22,2.72,4,5.43l11.6,17.59
			l11.72-17.59c0.7-1.08,1.3-1.99,1.78-2.73c0.48-0.74,1.01-1.43,1.59-2.07c0.58-0.65,1.22-1.14,1.93-1.48
			c0.7-0.34,1.57-0.51,2.58-0.51c1.58,0,2.9,0.48,3.96,1.44c1.06,0.96,1.59,2.07,1.59,3.34c0,1.03-0.27,2.06-0.8,3.08
			c-0.54,1.03-1.45,2.45-2.75,4.27l-15.53,22.25v18.38c0,2.4-0.59,4.19-1.78,5.38c-1.19,1.19-2.69,1.78-4.53,1.78
			c-1.86,0-3.37-0.59-4.53-1.76C309.92,339.23,309.34,337.43,309.34,335.01z"/>
		<path class="st5" d="M375.83,282.24c6.43,0,11.96,1.22,16.57,3.66c4.61,2.44,8.1,5.9,10.47,10.39c2.37,4.49,3.55,9.77,3.55,15.83
			c0,4.48-0.65,8.55-1.95,12.21c-1.3,3.66-3.25,6.84-5.84,9.52c-2.6,2.69-5.78,4.74-9.56,6.17c-3.78,1.42-8.11,2.13-12.99,2.13
			c-4.85,0-9.2-0.73-13.04-2.19c-3.84-1.46-7.04-3.52-9.61-6.19c-2.57-2.66-4.51-5.86-5.82-9.6c-1.31-3.74-1.97-7.79-1.97-12.13
			c0-4.45,0.68-8.54,2.05-12.25c1.37-3.72,3.35-6.88,5.95-9.49c2.6-2.61,5.76-4.6,9.48-5.99
			C366.85,282.93,371.09,282.24,375.83,282.24z M393.68,312.04c0-4.24-0.73-7.92-2.2-11.03c-1.47-3.11-3.56-5.46-6.28-7.05
			c-2.72-1.59-5.85-2.39-9.37-2.39c-2.51,0-4.83,0.44-6.96,1.32c-2.13,0.88-3.96,2.17-5.5,3.85c-1.54,1.69-2.75,3.84-3.64,6.46
			c-0.89,2.62-1.33,5.57-1.33,8.83c0,3.29,0.44,6.27,1.33,8.93c0.89,2.66,2.14,4.87,3.77,6.62c1.62,1.75,3.48,3.06,5.59,3.93
			c2.1,0.87,4.41,1.3,6.92,1.3c3.22,0,6.17-0.75,8.87-2.25c2.69-1.5,4.84-3.82,6.43-6.96C392.89,320.49,393.68,316.63,393.68,312.04
			z"/>
		<path class="st5" d="M417.26,317.22v-27.86c0-2.37,0.57-4.15,1.71-5.34s2.65-1.78,4.51-1.78c1.95,0,3.49,0.59,4.63,1.78
			c1.14,1.19,1.71,2.96,1.71,5.34v28.5c0,3.24,0.39,5.95,1.16,8.12c0.78,2.17,2.15,3.86,4.13,5.06c1.97,1.2,4.74,1.8,8.29,1.8
			c4.91,0,8.38-1.22,10.41-3.66c2.03-2.44,3.05-6.13,3.05-11.09v-28.73c0-2.4,0.56-4.18,1.69-5.36c1.13-1.17,2.64-1.76,4.53-1.76
			c1.89,0,3.42,0.59,4.59,1.76c1.17,1.17,1.76,2.96,1.76,5.36v27.86c0,4.53-0.47,8.31-1.42,11.34c-0.95,3.03-2.73,5.69-5.35,7.98
			c-2.26,1.95-4.88,3.37-7.87,4.27c-2.99,0.9-6.49,1.34-10.5,1.34c-4.77,0-8.87-0.48-12.32-1.44c-3.44-0.96-6.25-2.45-8.42-4.47
			c-2.17-2.02-3.77-4.6-4.78-7.75C417.77,325.36,417.26,321.59,417.26,317.22z"/>
		<path class="st5" d="M549.85,289.36v16.6h27.13v-16.6c0-2.37,0.57-4.15,1.71-5.34c1.14-1.19,2.65-1.78,4.51-1.78
			c1.89,0,3.42,0.59,4.59,1.76c1.17,1.17,1.76,2.96,1.76,5.36v45.65c0,2.4-0.59,4.19-1.78,5.38c-1.18,1.19-2.71,1.78-4.57,1.78
			c-1.89,0-3.4-0.6-4.53-1.8c-1.13-1.2-1.69-2.98-1.69-5.36v-19.48h-27.13v19.48c0,2.4-0.59,4.19-1.78,5.38
			c-1.19,1.19-2.71,1.78-4.57,1.78c-1.89,0-3.4-0.6-4.53-1.8c-1.13-1.2-1.69-2.98-1.69-5.36v-45.65c0-2.37,0.56-4.15,1.67-5.34
			c1.11-1.19,2.63-1.78,4.55-1.78c1.89,0,3.42,0.59,4.59,1.76C549.26,285.17,549.85,286.96,549.85,289.36z"/>
	</g>
</g>
</svg>
